# Blender 4.3.2
# www.blender.org
mtllib hammer_head_insert.mtl
o hammer_head
v 0.025410 -0.022814 -0.005054
v 0.025410 -0.022814 -0.005054
v 0.023936 -0.022814 -0.009915
v 0.023936 -0.022814 -0.009915
v -0.023936 -0.022814 -0.009915
v -0.023936 -0.022814 -0.009915
v -0.025410 -0.022814 -0.005054
v -0.025410 -0.022814 -0.005054
v -0.025908 -0.022814 0.000000
v -0.025908 -0.022814 0.000000
v 0.025908 -0.022814 0.000000
v 0.025908 -0.022814 0.000000
v -0.025410 -0.022814 0.005054
v -0.025410 -0.022814 0.005054
v 0.025410 -0.022814 0.005054
v 0.025410 -0.022814 0.005054
v 0.023936 -0.022814 0.009915
v 0.023936 -0.022814 0.009915
v -0.023936 -0.022814 0.009915
v -0.023936 -0.022814 0.009915
v -0.021542 -0.022814 0.014394
v -0.021542 -0.022814 0.014394
v 0.021542 -0.022814 0.014394
v 0.021542 -0.022814 0.014394
v 0.018320 -0.022814 0.018320
v 0.018320 -0.022814 0.018320
v -0.018320 -0.022814 0.018320
v -0.018320 -0.022814 0.018320
v -0.014394 -0.022814 0.021542
v -0.014394 -0.022814 0.021542
v 0.014394 -0.022814 0.021542
v 0.014394 -0.022814 0.021542
v -0.009915 -0.022814 0.023936
v -0.009915 -0.022814 0.023936
v -0.005054 -0.022814 0.025410
v -0.005054 -0.022814 0.025410
v 0.009915 -0.022814 0.023936
v 0.009915 -0.022814 0.023936
v 0.005054 -0.022814 0.025410
v 0.005054 -0.022814 0.025410
v 0.000000 -0.022814 0.025908
v 0.000000 -0.022814 0.025908
v -0.021542 -0.022814 -0.014394
v -0.021542 -0.022814 -0.014394
v 0.021542 -0.022814 -0.014394
v 0.021542 -0.022814 -0.014394
v 0.018320 -0.022814 -0.018320
v 0.018320 -0.022814 -0.018320
v -0.018320 -0.022814 -0.018320
v -0.018320 -0.022814 -0.018320
v -0.014394 -0.022814 -0.021542
v -0.014394 -0.022814 -0.021542
v 0.014394 -0.022814 -0.021542
v 0.014394 -0.022814 -0.021542
v 0.009915 -0.022814 -0.023936
v 0.009915 -0.022814 -0.023936
v -0.009915 -0.022814 -0.023936
v -0.009915 -0.022814 -0.023936
v -0.005054 -0.022814 -0.025410
v -0.005054 -0.022814 -0.025410
v 0.005054 -0.022814 -0.025410
v 0.005054 -0.022814 -0.025410
v 0.000000 -0.022814 -0.025908
v 0.000000 -0.022814 -0.025908
v 0.005054 -0.010376 -0.025410
v 0.005054 -0.010376 -0.025410
v 0.005054 -0.010376 -0.025410
v 0.005054 -0.010376 -0.025410
v 0.000000 -0.010376 -0.025908
v 0.000000 -0.010376 -0.025908
v 0.000000 -0.010376 -0.025908
v 0.000000 -0.010376 -0.025908
v 0.009915 -0.010376 -0.023936
v 0.009915 -0.010376 -0.023936
v 0.009915 -0.010376 -0.023936
v 0.009915 -0.010376 -0.023936
v 0.014394 -0.010376 -0.021542
v 0.014394 -0.010376 -0.021542
v 0.014394 -0.010376 -0.021542
v 0.014394 -0.010376 -0.021542
v 0.018320 -0.010376 -0.018320
v 0.018320 -0.010376 -0.018320
v 0.018320 -0.010376 -0.018320
v 0.018320 -0.010376 -0.018320
v 0.021542 -0.010376 -0.014394
v 0.021542 -0.010376 -0.014394
v 0.021542 -0.010376 -0.014394
v 0.021542 -0.010376 -0.014394
v 0.023936 -0.010376 -0.009915
v 0.023936 -0.010376 -0.009915
v 0.023936 -0.010376 -0.009915
v 0.023936 -0.010376 -0.009915
v 0.025410 -0.010376 -0.005054
v 0.025410 -0.010376 -0.005054
v 0.025410 -0.010376 -0.005054
v 0.025410 -0.010376 -0.005054
v 0.025908 -0.010376 0.000000
v 0.025908 -0.010376 0.000000
v 0.025908 -0.010376 0.000000
v 0.025908 -0.010376 0.000000
v 0.025410 -0.010376 0.005054
v 0.025410 -0.010376 0.005054
v 0.025410 -0.010376 0.005054
v 0.025410 -0.010376 0.005054
v 0.023936 -0.010376 0.009915
v 0.023936 -0.010376 0.009915
v 0.023936 -0.010376 0.009915
v 0.023936 -0.010376 0.009915
v 0.021542 -0.010376 0.014394
v 0.021542 -0.010376 0.014394
v 0.021542 -0.010376 0.014394
v 0.021542 -0.010376 0.014394
v 0.018320 -0.010376 0.018320
v 0.018320 -0.010376 0.018320
v 0.018320 -0.010376 0.018320
v 0.018320 -0.010376 0.018320
v 0.014394 -0.010376 0.021542
v 0.014394 -0.010376 0.021542
v 0.014394 -0.010376 0.021542
v 0.014394 -0.010376 0.021542
v 0.009915 -0.010376 0.023936
v 0.009915 -0.010376 0.023936
v 0.009915 -0.010376 0.023936
v 0.009915 -0.010376 0.023936
v 0.005054 -0.010376 0.025410
v 0.005054 -0.010376 0.025410
v 0.005054 -0.010376 0.025410
v 0.005054 -0.010376 0.025410
v 0.000000 -0.010376 0.025908
v 0.000000 -0.010376 0.025908
v 0.000000 -0.010376 0.025908
v 0.000000 -0.010376 0.025908
v -0.005054 -0.010376 0.025410
v -0.005054 -0.010376 0.025410
v -0.005054 -0.010376 0.025410
v -0.005054 -0.010376 0.025410
v -0.009915 -0.010376 0.023936
v -0.009915 -0.010376 0.023936
v -0.009915 -0.010376 0.023936
v -0.009915 -0.010376 0.023936
v -0.014394 -0.010376 0.021542
v -0.014394 -0.010376 0.021542
v -0.014394 -0.010376 0.021542
v -0.014394 -0.010376 0.021542
v -0.018320 -0.010376 0.018320
v -0.018320 -0.010376 0.018320
v -0.018320 -0.010376 0.018320
v -0.018320 -0.010376 0.018320
v -0.021542 -0.010376 0.014394
v -0.021542 -0.010376 0.014394
v -0.021542 -0.010376 0.014394
v -0.021542 -0.010376 0.014394
v -0.023936 -0.010376 0.009915
v -0.023936 -0.010376 0.009915
v -0.023936 -0.010376 0.009915
v -0.023936 -0.010376 0.009915
v -0.025410 -0.010376 0.005054
v -0.025410 -0.010376 0.005054
v -0.025410 -0.010376 0.005054
v -0.025410 -0.010376 0.005054
v -0.025908 -0.010376 0.000000
v -0.025908 -0.010376 0.000000
v -0.025908 -0.010376 0.000000
v -0.025908 -0.010376 0.000000
v -0.025410 -0.010376 -0.005054
v -0.025410 -0.010376 -0.005054
v -0.025410 -0.010376 -0.005054
v -0.025410 -0.010376 -0.005054
v -0.023936 -0.010376 -0.009915
v -0.023936 -0.010376 -0.009915
v -0.023936 -0.010376 -0.009915
v -0.023936 -0.010376 -0.009915
v -0.021542 -0.010376 -0.014394
v -0.021542 -0.010376 -0.014394
v -0.021542 -0.010376 -0.014394
v -0.021542 -0.010376 -0.014394
v -0.018320 -0.010376 -0.018320
v -0.018320 -0.010376 -0.018320
v -0.018320 -0.010376 -0.018320
v -0.018320 -0.010376 -0.018320
v -0.014394 -0.010376 -0.021542
v -0.014394 -0.010376 -0.021542
v -0.014394 -0.010376 -0.021542
v -0.014394 -0.010376 -0.021542
v -0.009915 -0.010376 -0.023936
v -0.009915 -0.010376 -0.023936
v -0.009915 -0.010376 -0.023936
v -0.009915 -0.010376 -0.023936
v 0.025908 -0.010530 0.000000
v 0.025908 -0.010530 0.000000
v 0.025908 -0.010530 0.000000
v 0.025908 -0.010530 0.000000
v 0.025410 -0.010530 -0.005054
v 0.025410 -0.010530 -0.005054
v 0.025410 -0.010530 -0.005054
v 0.025410 -0.010530 -0.005054
v -0.005054 -0.010376 -0.025410
v -0.005054 -0.010376 -0.025410
v -0.005054 -0.010376 -0.025410
v -0.005054 -0.010376 -0.025410
v 0.009915 -0.010530 -0.023936
v 0.009915 -0.010530 -0.023936
v 0.009915 -0.010530 -0.023936
v 0.009915 -0.010530 -0.023936
v 0.005054 -0.010530 -0.025410
v 0.005054 -0.010530 -0.025410
v 0.005054 -0.010530 -0.025410
v 0.005054 -0.010530 -0.025410
v -0.005054 -0.010530 0.025410
v -0.005054 -0.010530 0.025410
v -0.005054 -0.010530 0.025410
v -0.005054 -0.010530 0.025410
v 0.000000 -0.010530 0.025908
v 0.000000 -0.010530 0.025908
v 0.000000 -0.010530 0.025908
v 0.000000 -0.010530 0.025908
v -0.023936 -0.010530 -0.009915
v -0.023936 -0.010530 -0.009915
v -0.023936 -0.010530 -0.009915
v -0.023936 -0.010530 -0.009915
v -0.025410 -0.010530 -0.005054
v -0.025410 -0.010530 -0.005054
v -0.025410 -0.010530 -0.005054
v -0.025410 -0.010530 -0.005054
v 0.018320 -0.010530 -0.018320
v 0.018320 -0.010530 -0.018320
v 0.018320 -0.010530 -0.018320
v 0.018320 -0.010530 -0.018320
v 0.014394 -0.010530 -0.021542
v 0.014394 -0.010530 -0.021542
v 0.014394 -0.010530 -0.021542
v 0.014394 -0.010530 -0.021542
v 0.014394 -0.010530 0.021542
v 0.014394 -0.010530 0.021542
v 0.014394 -0.010530 0.021542
v 0.014394 -0.010530 0.021542
v 0.018320 -0.010530 0.018320
v 0.018320 -0.010530 0.018320
v 0.018320 -0.010530 0.018320
v 0.018320 -0.010530 0.018320
v -0.023936 -0.010530 0.009915
v -0.023936 -0.010530 0.009915
v -0.023936 -0.010530 0.009915
v -0.023936 -0.010530 0.009915
v -0.021542 -0.010530 0.014394
v -0.021542 -0.010530 0.014394
v -0.021542 -0.010530 0.014394
v -0.021542 -0.010530 0.014394
v -0.005054 -0.010530 -0.025410
v -0.005054 -0.010530 -0.025410
v -0.005054 -0.010530 -0.025410
v -0.005054 -0.010530 -0.025410
v -0.009915 -0.010530 -0.023936
v -0.009915 -0.010530 -0.023936
v -0.009915 -0.010530 -0.023936
v -0.009915 -0.010530 -0.023936
v 0.025410 -0.010530 0.005054
v 0.025410 -0.010530 0.005054
v 0.025410 -0.010530 0.005054
v 0.025410 -0.010530 0.005054
v -0.009915 -0.010530 0.023936
v -0.009915 -0.010530 0.023936
v -0.009915 -0.010530 0.023936
v -0.009915 -0.010530 0.023936
v -0.021542 -0.010530 -0.014394
v -0.021542 -0.010530 -0.014394
v -0.021542 -0.010530 -0.014394
v -0.021542 -0.010530 -0.014394
v 0.021542 -0.010530 -0.014394
v 0.021542 -0.010530 -0.014394
v 0.021542 -0.010530 -0.014394
v 0.021542 -0.010530 -0.014394
v 0.009915 -0.010530 0.023936
v 0.009915 -0.010530 0.023936
v 0.009915 -0.010530 0.023936
v 0.009915 -0.010530 0.023936
v -0.025410 -0.010530 0.005054
v -0.025410 -0.010530 0.005054
v -0.025410 -0.010530 0.005054
v -0.025410 -0.010530 0.005054
v 0.023936 -0.010530 0.009915
v 0.023936 -0.010530 0.009915
v 0.023936 -0.010530 0.009915
v 0.023936 -0.010530 0.009915
v -0.014394 -0.010530 0.021542
v -0.014394 -0.010530 0.021542
v -0.014394 -0.010530 0.021542
v -0.014394 -0.010530 0.021542
v -0.018320 -0.010530 -0.018320
v -0.018320 -0.010530 -0.018320
v -0.018320 -0.010530 -0.018320
v -0.018320 -0.010530 -0.018320
v 0.023936 -0.010530 -0.009915
v 0.023936 -0.010530 -0.009915
v 0.023936 -0.010530 -0.009915
v 0.023936 -0.010530 -0.009915
v 0.005054 -0.010530 0.025410
v 0.005054 -0.010530 0.025410
v 0.005054 -0.010530 0.025410
v 0.005054 -0.010530 0.025410
v -0.003633 0.016120 -0.018266
v -0.003633 0.016120 -0.018266
v 0.000000 0.016120 -0.018624
v 0.000000 0.016120 -0.018624
v 0.003633 0.016120 -0.018266
v 0.003633 0.016120 -0.018266
v 0.007127 0.016120 -0.017207
v 0.007127 0.016120 -0.017207
v 0.010347 0.016120 -0.015485
v 0.010347 0.016120 -0.015485
v 0.013169 0.016120 -0.013169
v 0.013169 0.016120 -0.013169
v 0.015485 0.016120 -0.010347
v 0.015485 0.016120 -0.010347
v 0.017207 0.016120 -0.007127
v 0.017207 0.016120 -0.007127
v 0.018266 0.016120 -0.003633
v 0.018266 0.016120 -0.003633
v 0.018624 0.016120 -0.000000
v 0.018624 0.016120 -0.000000
v 0.018266 0.016120 0.003633
v 0.018266 0.016120 0.003633
v 0.017207 0.016120 0.007127
v 0.017207 0.016120 0.007127
v 0.015485 0.016120 0.010347
v 0.015485 0.016120 0.010347
v 0.013169 0.016120 0.013169
v 0.013169 0.016120 0.013169
v 0.010347 0.016120 0.015485
v 0.010347 0.016120 0.015485
v 0.007127 0.016120 0.017207
v 0.007127 0.016120 0.017207
v 0.003633 0.016120 0.018266
v 0.003633 0.016120 0.018266
v 0.000000 0.016120 0.018624
v 0.000000 0.016120 0.018624
v -0.003633 0.016120 0.018266
v -0.003633 0.016120 0.018266
v -0.007127 0.016120 0.017207
v -0.007127 0.016120 0.017207
v -0.010347 0.016120 0.015485
v -0.010347 0.016120 0.015485
v -0.013169 0.016120 0.013169
v -0.013169 0.016120 0.013169
v -0.015485 0.016120 0.010347
v -0.015485 0.016120 0.010347
v -0.017207 0.016120 0.007127
v -0.017207 0.016120 0.007127
v -0.018266 0.016120 0.003633
v -0.018266 0.016120 0.003633
v -0.018624 0.016120 -0.000000
v -0.018624 0.016120 -0.000000
v -0.018266 0.016120 -0.003633
v -0.018266 0.016120 -0.003633
v -0.017207 0.016120 -0.007127
v -0.017207 0.016120 -0.007127
v -0.015485 0.016120 -0.010347
v -0.015485 0.016120 -0.010347
v -0.013169 0.016120 -0.013169
v -0.013169 0.016120 -0.013169
v -0.010347 0.016120 -0.015485
v -0.010347 0.016120 -0.015485
v -0.007127 0.016120 -0.017207
v -0.007127 0.016120 -0.017207
v -0.025908 -0.010530 0.000000
v -0.025908 -0.010530 0.000000
v -0.025908 -0.010530 0.000000
v -0.025908 -0.010530 0.000000
v 0.021542 -0.010530 0.014394
v 0.021542 -0.010530 0.014394
v 0.021542 -0.010530 0.014394
v 0.021542 -0.010530 0.014394
v -0.018320 -0.010530 0.018320
v -0.018320 -0.010530 0.018320
v -0.018320 -0.010530 0.018320
v -0.018320 -0.010530 0.018320
v -0.014394 -0.010530 -0.021542
v -0.014394 -0.010530 -0.021542
v -0.014394 -0.010530 -0.021542
v -0.014394 -0.010530 -0.021542
v 0.000000 -0.010530 -0.025908
v 0.000000 -0.010530 -0.025908
v 0.000000 -0.010530 -0.025908
v 0.000000 -0.010530 -0.025908
vn -0.0981 -0.0000 0.9952
vn -0.2902 -0.0000 0.9570
vn -0.4714 -0.0000 0.8819
vn -0.6344 -0.0000 0.7730
vn -0.7730 -0.0000 0.6344
vn -0.8819 -0.0000 0.4714
vn -0.9570 -0.0000 0.2902
vn -0.9952 -0.0000 0.0981
vn -0.9952 -0.0000 -0.0981
vn -0.9570 -0.0000 -0.2902
vn -0.8819 -0.0000 -0.4714
vn -0.7730 -0.0000 -0.6344
vn -0.6344 -0.0000 -0.7730
vn -0.4714 -0.0000 -0.8819
vn -0.2902 -0.0000 -0.9570
vn -0.0981 -0.0000 -0.9952
vn 0.0981 -0.0000 -0.9952
vn 0.2902 -0.0000 -0.9570
vn 0.4714 -0.0000 -0.8819
vn 0.6344 -0.0000 -0.7730
vn 0.7730 -0.0000 -0.6344
vn 0.8819 -0.0000 -0.4714
vn 0.9570 -0.0000 -0.2902
vn 0.9952 -0.0000 -0.0981
vn 0.9952 -0.0000 0.0981
vn 0.9570 -0.0000 0.2902
vn 0.8819 -0.0000 0.4714
vn 0.7730 -0.0000 0.6344
vn 0.6344 -0.0000 0.7730
vn 0.4714 -0.0000 0.8819
vn 0.2902 -0.0000 0.9570
vn 0.0981 -0.0000 0.9952
vn -0.0946 -0.2625 0.9603
vn -0.2800 -0.2625 0.9234
vn -0.2799 -0.2625 0.9235
vn -0.4549 -0.2625 0.8510
vn -0.4550 -0.2625 0.8509
vn -0.6122 -0.2625 0.7459
vn -0.7459 -0.2625 0.6122
vn -0.8510 -0.2625 0.4549
vn -0.8510 -0.2625 0.4548
vn -0.8509 -0.2625 0.4550
vn -0.9234 -0.2625 0.2800
vn -0.9235 -0.2625 0.2799
vn -0.9603 -0.2625 0.0946
vn -0.9603 -0.2625 -0.0946
vn -0.9234 -0.2625 -0.2800
vn -0.9233 -0.2625 -0.2802
vn -0.9235 -0.2625 -0.2799
vn -0.8510 -0.2625 -0.4549
vn -0.8509 -0.2625 -0.4550
vn -0.7459 -0.2625 -0.6122
vn -0.6122 -0.2625 -0.7459
vn -0.4549 -0.2625 -0.8510
vn -0.4551 -0.2625 -0.8509
vn -0.4550 -0.2625 -0.8509
vn -0.2800 -0.2625 -0.9234
vn -0.2799 -0.2625 -0.9235
vn -0.0946 -0.2625 -0.9603
vn 0.0946 -0.2625 -0.9603
vn 0.2800 -0.2625 -0.9234
vn 0.2799 -0.2625 -0.9235
vn 0.4549 -0.2625 -0.8510
vn 0.4550 -0.2625 -0.8509
vn 0.6122 -0.2625 -0.7459
vn 0.7459 -0.2625 -0.6122
vn 0.8510 -0.2625 -0.4549
vn 0.8510 -0.2625 -0.4548
vn 0.8509 -0.2625 -0.4550
vn 0.9234 -0.2625 -0.2800
vn 0.9235 -0.2625 -0.2799
vn 0.9603 -0.2625 -0.0946
vn 0.9603 -0.2625 0.0946
vn 0.9234 -0.2625 0.2800
vn 0.9233 -0.2625 0.2802
vn 0.9235 -0.2625 0.2799
vn 0.8510 -0.2625 0.4549
vn 0.8509 -0.2625 0.4550
vn 0.7459 -0.2625 0.6122
vn 0.6122 -0.2625 0.7459
vn 0.4549 -0.2625 0.8510
vn 0.4551 -0.2625 0.8509
vn 0.4550 -0.2625 0.8509
vn 0.2800 -0.2625 0.9234
vn 0.2799 -0.2625 0.9235
vn 0.0946 -0.2625 0.9603
s 1
f 62//1 67//1 70//1
f 62//1 70//1 63//1
f 55//2 75//2 68//2
f 55//2 68//2 61//2
f 54//3 79//3 76//3
f 54//3 76//3 56//3
f 48//4 84//4 78//4
f 48//4 78//4 53//4
f 46//5 86//5 82//5
f 46//5 82//5 47//5
f 3//6 91//6 85//6
f 3//6 85//6 45//6
f 1//7 93//7 90//7
f 1//7 90//7 4//7
f 12//8 100//8 94//8
f 12//8 94//8 2//8
f 16//9 101//9 98//9
f 16//9 98//9 11//9
f 18//10 107//10 104//10
f 18//10 104//10 15//10
f 23//11 110//11 105//11
f 23//11 105//11 17//11
f 25//12 115//12 112//12
f 25//12 112//12 24//12
f 31//13 119//13 113//13
f 31//13 113//13 26//13
f 37//14 121//14 117//14
f 37//14 117//14 32//14
f 40//15 125//15 122//15
f 40//15 122//15 38//15
f 41//16 130//16 127//16
f 41//16 127//16 39//16
f 35//17 134//17 131//17
f 35//17 131//17 42//17
f 34//18 137//18 133//18
f 34//18 133//18 36//18
f 30//19 144//19 140//19
f 30//19 140//19 33//19
f 27//20 148//20 142//20
f 27//20 142//20 29//20
f 21//21 149//21 147//21
f 21//21 147//21 28//21
f 19//22 156//22 152//22
f 19//22 152//22 22//22
f 14//23 158//23 154//23
f 14//23 154//23 20//23
f 9//24 164//24 160//24
f 9//24 160//24 13//24
f 7//25 167//25 161//25
f 7//25 161//25 10//25
f 5//26 171//26 165//26
f 5//26 165//26 8//26
f 43//27 175//27 172//27
f 43//27 172//27 6//27
f 49//28 180//28 174//28
f 49//28 174//28 44//28
f 51//29 184//29 179//29
f 51//29 179//29 50//29
f 58//30 187//30 182//30
f 58//30 182//30 52//30
f 97//24 190//24 195//24
f 97//24 195//24 95//24
f 60//31 197//31 185//31
f 60//31 185//31 57//31
f 64//32 71//32 199//32
f 64//32 199//32 59//32
f 74//18 201//18 208//18
f 74//18 208//18 65//18
f 135//1 209//1 216//1
f 135//1 216//1 132//1
f 169//10 217//10 221//10
f 169//10 221//10 168//10
f 81//20 226//20 229//20
f 81//20 229//20 80//20
f 120//29 234//29 239//29
f 120//29 239//29 114//29
f 155//6 244//6 245//6
f 155//6 245//6 151//6
f 200//15 250//15 254//15
f 200//15 254//15 188//15
f 102//25 259//25 192//25
f 102//25 192//25 99//25
f 139//2 262//2 211//2
f 139//2 211//2 136//2
f 173//11 267//11 220//11
f 173//11 220//11 170//11
f 87//21 269//21 225//21
f 87//21 225//21 83//21
f 123//30 276//30 235//30
f 123//30 235//30 118//30
f 157//7 280//7 241//7
f 157//7 241//7 153//7
f 108//26 282//26 258//26
f 108//26 258//26 103//26
f 141//3 285//3 264//3
f 141//3 264//3 138//3
f 177//12 290//12 266//12
f 177//12 266//12 176//12
f 89//22 293//22 272//22
f 89//22 272//22 88//22
f 128//31 299//31 273//31
f 128//31 273//31 124//31
f 162//8 367//8 279//8
f 162//8 279//8 159//8
f 77//19 231//19 203//19
f 77//19 203//19 73//19
f 111//27 370//27 284//27
f 111//27 284//27 106//27
f 146//4 375//4 288//4
f 146//4 288//4 143//4
f 183//13 380//13 292//13
f 183//13 292//13 178//13
f 96//23 193//23 295//23
f 96//23 295//23 92//23
f 129//32 213//32 297//32
f 129//32 297//32 126//32
f 166//9 222//9 366//9
f 166//9 366//9 163//9
f 72//16 381//16 252//16
f 72//16 252//16 198//16
f 116//28 237//28 369//28
f 116//28 369//28 109//28
f 150//5 247//5 374//5
f 150//5 374//5 145//5
f 186//14 253//14 379//14
f 186//14 379//14 181//14
f 205//33 305//33 303//33
f 205//33 303//33 382//33
f 202//34 308//35 306//35
f 202//34 306//35 207//34
f 232//36 310//37 307//37
f 232//36 307//37 204//36
f 228//38 311//38 309//38
f 228//38 309//38 230//38
f 271//39 314//39 312//39
f 271//39 312//39 227//39
f 296//40 316//41 313//42
f 296//40 313//42 270//40
f 196//43 317//44 315//44
f 196//43 315//44 294//43
f 191//45 319//45 318//45
f 191//45 318//45 194//45
f 260//46 322//46 320//46
f 260//46 320//46 189//46
f 281//47 323//48 321//49
f 281//47 321//49 257//47
f 371//50 325//51 324//51
f 371//50 324//51 283//50
f 240//52 328//52 326//52
f 240//52 326//52 372//52
f 233//53 330//53 327//53
f 233//53 327//53 238//53
f 275//54 331//55 329//56
f 275//54 329//56 236//54
f 300//57 333//58 332//58
f 300//57 332//58 274//57
f 214//59 336//59 334//59
f 214//59 334//59 298//59
f 210//60 337//60 335//60
f 210//60 335//60 215//60
f 263//61 340//62 338//62
f 263//61 338//62 212//61
f 287//63 341//64 339//64
f 287//63 339//64 261//63
f 373//65 343//65 342//65
f 373//65 342//65 286//65
f 248//66 345//66 344//66
f 248//66 344//66 376//66
f 243//67 347//68 346//69
f 243//67 346//69 246//67
f 278//70 349//71 348//71
f 278//70 348//71 242//70
f 365//72 351//72 350//72
f 365//72 350//72 277//72
f 224//73 353//73 352//73
f 224//73 352//73 368//73
f 218//74 355//75 354//76
f 218//74 354//76 223//74
f 268//77 357//78 356//78
f 268//77 356//78 219//77
f 289//79 359//79 358//79
f 289//79 358//79 265//79
f 377//80 362//80 360//80
f 377//80 360//80 291//80
f 255//81 364//82 361//83
f 255//81 361//83 378//81
f 249//84 301//85 363//85
f 249//84 363//85 256//84
f 384//86 304//86 302//86
f 384//86 302//86 251//86
f 66//17 206//17 383//17
f 66//17 383//17 69//17
